<svg width="380" height="271" viewBox="0 0 380 271" fill="none" xmlns="http://www.w3.org/2000/svg">
<circle cx="210" cy="138.469" r="58" fill="#F3F3F3" fill-opacity="0.78"/>
<path d="M227.047 134.668C231.903 129.848 239.774 129.848 244.63 134.668C249.485 139.488 249.485 147.302 244.63 152.122L225.792 170.824L206.954 152.122C202.099 147.302 202.099 139.488 206.954 134.668C211.809 129.848 219.681 129.848 224.536 134.668L225.79 135.912L227.047 134.668ZM233.547 112.922C236.8 116.181 238.747 120.244 239.389 124.464C234.781 123.609 229.918 124.431 225.792 126.93C218.353 122.425 208.519 123.367 202.081 129.759C194.711 137.075 194.507 148.83 201.467 156.393L202.081 157.031L210.454 165.346L205.041 170.772L175.72 141.403C168.442 133.256 168.714 120.743 176.536 112.922C184.366 105.092 196.898 104.828 205.045 112.131C213.169 104.839 225.723 105.081 233.547 112.922Z" fill="#2DB4DE"/>
<path d="M0.4552 127.257L1.69703 119.469L28.6991 123.775L27.4572 131.563L0.4552 127.257Z" fill="#FFBF75" fill-opacity="0.3"/>
<rect x="115.348" y="53.9258" width="6.01276" height="15.0477" transform="rotate(-24.1129 115.348 53.9258)" fill="#F16336" fill-opacity="0.3"/>
<rect x="362" y="256.926" width="6.01276" height="15.0477" transform="rotate(-24.1129 362 256.926)" fill="#F16336" fill-opacity="0.3"/>
<rect x="290.277" y="2.52722" width="6.77913" height="8.17375" transform="rotate(-21.8879 290.277 2.52722)" fill="#3397F2" fill-opacity="0.21"/>
<rect x="254.087" y="60.4694" width="6.77913" height="8.17375" transform="rotate(30 254.087 60.4694)" fill="#3397F2" fill-opacity="0.21"/>
<rect x="360.353" y="70.4893" width="6.98491" height="21.6943" transform="rotate(52.7876 360.353 70.4893)" fill="#54E975" fill-opacity="0.38"/>
<rect x="68.2773" y="196.469" width="6.98491" height="21.6943" transform="rotate(52.7876 68.2773 196.469)" fill="#54E975" fill-opacity="0.38"/>
<rect x="51" y="80.7734" width="1.88689" height="12.8288" transform="rotate(130.338 51 80.7734)" fill="#17DFBB" fill-opacity="0.35"/>
<rect x="41.3342" y="82.8749" width="1.88689" height="12.8288" transform="rotate(-135 41.3342 82.8749)" fill="#17DFBB" fill-opacity="0.35"/>
<rect x="380" y="163.773" width="1.88689" height="12.8288" transform="rotate(130.338 380 163.773)" fill="#17DFBB" fill-opacity="0.35"/>
<rect x="370.334" y="165.875" width="1.88689" height="12.8288" transform="rotate(-135 370.334 165.875)" fill="#17DFBB" fill-opacity="0.35"/>
<rect x="163" y="252.304" width="1.88689" height="12.8288" transform="rotate(130.338 163 252.304)" fill="#17DFBB" fill-opacity="0.35"/>
<rect x="153.334" y="254.406" width="1.88689" height="12.8288" transform="rotate(-135 153.334 254.406)" fill="#17DFBB" fill-opacity="0.35"/>
</svg>
