<svg width="448" height="458" viewBox="0 0 448 458" fill="none" xmlns="http://www.w3.org/2000/svg">
<g clip-path="url(#clip0_6_11)">
<path d="M448 457.165C448 457.274 447.979 457.383 447.937 457.485C447.895 457.586 447.834 457.678 447.756 457.756C447.678 457.834 447.586 457.895 447.484 457.937C447.383 457.979 447.274 458 447.164 458H0.836045C0.614313 458 0.401659 457.912 0.24487 457.755C0.0880817 457.599 0 457.386 0 457.165C0 456.943 0.0880817 456.731 0.24487 456.574C0.401659 456.417 0.614313 456.329 0.836045 456.329H447.164C447.274 456.329 447.383 456.35 447.484 456.392C447.586 456.434 447.678 456.496 447.756 456.573C447.834 456.651 447.895 456.743 447.937 456.845C447.979 456.946 448 457.055 448 457.165Z" fill="#CCCCCC"/>
<path d="M363.29 20.6921C362.739 17.6279 361.375 14.7674 359.341 12.4089C356.449 9.11932 352.936 6.43122 349.003 4.49813C345.071 2.56504 340.795 1.42482 336.422 1.14257C332.048 0.860332 327.662 1.44159 323.513 2.85317C319.364 4.26475 315.534 6.479 312.242 9.36948L311.961 9.62219C308.031 5.81616 303.241 3.01286 297.996 1.44985C292.751 -0.113151 287.207 -0.389777 281.832 0.643426C276.458 1.67663 271.412 3.98921 267.122 7.38515C262.832 10.7811 259.425 15.1603 257.19 20.1516C255.135 24.7192 254.193 29.7081 254.441 34.7096C254.689 39.7111 256.12 44.5826 258.616 48.925C259.735 50.883 261.051 52.7222 262.543 54.4144C264.082 56.1693 305.617 102.337 306.031 102.801C306.081 102.858 306.142 102.904 306.211 102.936C306.281 102.967 306.356 102.983 306.432 102.983C306.446 102.983 306.467 102.976 306.488 102.976C306.517 102.976 306.546 102.969 306.572 102.955C306.709 102.922 306.828 102.836 306.903 102.716L307.12 102.358L307.38 101.916L311.223 95.5002C321.881 77.7055 336.248 60.9145 353.932 45.5977C355.07 44.6099 356.125 43.5299 357.086 42.3687C360.87 37.8491 363.153 32.2658 363.62 26.3921C363.754 24.4858 363.643 22.5702 363.29 20.6921Z" fill="#2DB4DE"/>
<path d="M172.73 381.61L180.553 356.157C171.141 345.807 159.343 337.909 146.183 333.149C159.04 354.432 146.582 382.195 151.773 406.507C153.451 414.078 156.812 421.174 161.607 427.27C166.402 433.366 172.509 438.305 179.475 441.723L191.345 456.418C197.568 445.555 201.36 433.473 202.46 421.005C203.559 408.536 201.941 395.978 197.715 384.195C195.279 377.608 192.022 371.354 188.022 365.58C180.968 373.866 172.73 381.61 172.73 381.61Z" fill="#F2F2F2"/>
<path d="M129.719 384.862L125.359 358.595C112.315 353.525 98.23 351.714 84.3267 353.317C105.334 366.637 106.576 397.038 122.074 416.485C126.955 422.513 133.13 427.367 140.143 430.686C147.156 434.006 154.827 435.706 162.587 435.66L179.771 443.524C180.492 431.028 178.493 418.524 173.912 406.875C169.331 395.225 162.276 384.706 153.235 376.042C148.114 371.233 142.408 367.086 136.25 363.701C133.635 374.26 129.719 384.862 129.719 384.862Z" fill="#F2F2F2"/>
<path d="M215.594 212.607L213.434 217.626L216.964 235.453L252.973 230.45L252.686 208.714L251.963 203.952L215.594 212.607Z" fill="#FFB6B6"/>
<path d="M196.99 443.643H204.934L208.714 413.026H196.99V443.643Z" fill="#FFB6B6"/>
<path d="M219.155 451.211L207.092 442.884V437.447L205.69 437.535L196.989 438.052L194.4 438.203L192.798 457.396H198.495L199.507 452.023L202.112 457.396H217.226C217.95 457.396 218.655 457.164 219.238 456.736C219.821 456.307 220.252 455.703 220.467 455.012C220.682 454.322 220.671 453.58 220.435 452.896C220.199 452.213 219.75 451.622 219.155 451.211Z" fill="#2F2E41"/>
<path d="M241.614 443.643H249.559L254.232 398.568L239.304 397.677L241.614 443.643Z" fill="#FFB6B6"/>
<path d="M263.78 451.211L251.718 442.884V437.447L250.188 437.535L241.336 438.068L239.025 438.203L237.424 457.396H243.121L244.133 452.023L246.738 457.396H261.852C262.576 457.396 263.281 457.164 263.864 456.736C264.447 456.307 264.877 455.703 265.093 455.012C265.308 454.322 265.297 453.58 265.061 452.896C264.824 452.213 264.376 451.622 263.78 451.211Z" fill="#2F2E41"/>
<path d="M193.617 417.241H193.648L195.176 367.458C194.187 365.553 193.685 363.433 193.715 361.286C193.745 359.14 194.306 357.035 195.347 355.157L195.566 354.762L194.998 352.135C194.27 348.76 194.604 345.242 195.956 342.065L197.381 295.627C192.289 262.653 216.557 241.149 216.557 241.149L214.326 223.866L253.578 224.757L252.911 241.149L260.715 267.941C264.823 307.925 265.067 347.096 260.865 385.331C260.857 385.441 260.873 385.551 260.913 385.654C261.34 386.949 261.49 388.319 261.354 389.676C261.218 391.033 260.799 392.346 260.124 393.531C259.949 393.834 259.829 394.165 259.769 394.509C258.903 401.212 258.791 392.733 257.643 399.376L257.867 399.489C258.67 399.766 259.015 400.879 258.637 401.974C258.258 403.069 257.3 403.732 256.496 403.455L235.513 403.679C234.709 403.402 234.365 402.29 234.743 401.194C235.121 400.099 236.08 399.436 236.883 399.713L238.189 400.373L236.005 393.234L235.239 392.519C234.872 392.177 234.588 391.757 234.407 391.289C234.226 390.822 234.153 390.319 234.193 389.819C234.234 389.32 234.387 388.836 234.642 388.403C234.896 387.971 235.245 387.602 235.662 387.324L236.297 366.597L236.606 357.822L235.969 347.868L233.026 303.093L221.887 358.153L210.509 417.795C210.775 418.034 210.974 418.337 211.088 418.676C211.203 419.014 211.228 419.376 211.162 419.727C211.057 420.217 210.785 420.656 210.392 420.968C209.999 421.28 209.51 421.445 209.008 421.436H193.562C193.238 421.436 192.918 421.361 192.628 421.217C192.338 421.073 192.085 420.864 191.889 420.607C191.693 420.349 191.559 420.05 191.498 419.732C191.437 419.414 191.449 419.087 191.536 418.775C191.666 418.326 191.94 417.933 192.317 417.656C192.693 417.379 193.15 417.233 193.617 417.241Z" fill="#2F2E41"/>
<path d="M207.353 127.899C207.352 131.077 208.132 134.207 209.624 137.014C211.116 139.821 213.275 142.219 215.911 143.998C218.548 145.777 221.581 146.882 224.744 147.216C227.908 147.55 231.105 147.103 234.055 145.914C237.005 144.726 239.619 142.831 241.665 140.398C243.712 137.965 245.129 135.067 245.793 131.958C246.457 128.85 246.347 125.626 245.473 122.57C244.599 119.514 242.987 116.719 240.779 114.431L240.686 114.338C240.531 114.175 240.375 114.011 240.212 113.856L240.209 113.855L240.206 113.854L240.205 113.851L240.204 113.848C239.981 113.686 239.776 113.501 239.59 113.297C236.967 109.634 233.992 106.563 226.787 108.481C216.414 111.244 207.353 117.173 207.353 127.899Z" fill="#2F2E41"/>
<path d="M314.108 119.586C314.152 120.625 313.967 121.661 313.567 122.621C313.167 123.581 312.561 124.442 311.793 125.142C311.024 125.843 310.11 126.367 309.117 126.677C308.124 126.987 307.074 127.075 306.043 126.936L255.924 168.033L248.269 154.589L299.941 118.419C300.29 116.704 301.256 115.176 302.657 114.124C304.059 113.073 305.797 112.572 307.543 112.716C309.289 112.86 310.922 113.639 312.132 114.905C313.342 116.171 314.045 117.837 314.108 119.586Z" fill="#FFB6B6"/>
<path d="M234.761 180.154C234.761 180.154 236.394 183.538 242.744 178.73C247.828 174.881 272.098 158.274 277.489 151.254C278.62 151.765 279.889 151.885 281.096 151.595C282.303 151.306 283.379 150.624 284.156 149.656L270.896 136.9C266.735 137.181 266.692 139.963 267.049 141.56L256.392 145.791L228.637 161.724L233.538 177.728L234.761 180.154Z" fill="#E6E6E6"/>
<path d="M231.575 148.674C240.575 148.674 247.871 141.384 247.871 132.391C247.871 123.399 240.575 116.109 231.575 116.109C222.575 116.109 215.279 123.399 215.279 132.391C215.279 141.384 222.575 148.674 231.575 148.674Z" fill="#FFB7B7"/>
<path d="M253.805 213.155L253.972 204.072C254.634 203.164 260.179 195.243 258.936 187.33C258.354 183.605 256.331 180.476 252.937 178.04L250.745 172.946L247.503 165.415L238.014 159.771L236.699 157.096L235.615 154.875L222.525 153.569L219.298 157.908L219.234 157.916C216.269 158.589 213.484 159.892 211.068 161.737C208.415 163.748 206.265 166.345 204.786 169.326C203.306 172.307 202.539 175.589 202.542 178.916L202.622 189.472L202.638 190.984L202.646 192.449L210.813 214.413L211.123 215.264L214.326 223.87L213.777 224.777C213.185 225.765 212.966 226.932 213.16 228.066C213.355 229.201 213.949 230.228 214.836 230.963L215.219 236.344L215.912 236.153L219.856 235.055L249.686 226.736C250.809 226.422 251.801 225.755 252.514 224.833C252.54 224.8 252.564 224.765 252.586 224.73C252.704 224.583 252.808 224.426 252.897 224.26C253.574 222.548 253.646 222.087 253.654 221.609C254.644 220.482 255.216 219.049 255.274 217.55C255.332 216.051 254.872 214.578 253.972 213.378L253.805 213.155Z" fill="#E6E6E6"/>
<path d="M214.52 136.66C214.668 136.637 214.816 136.605 214.963 136.582C217.505 136.132 220.047 135.689 222.581 135.231L222.815 129.491L225.885 134.633C232.889 136.955 239.442 135.642 245.607 132.745C247.64 131.781 249.613 130.694 251.515 129.491C252.141 119.784 248.213 113.569 240.904 114.221C240.637 114.245 240.445 113.973 240.212 113.856L240.209 113.855L240.206 113.854L240.205 113.851L240.204 113.848C239.808 113.662 239.403 113.483 238.999 113.32C235.835 112.084 232.384 111.772 229.048 112.418C225.713 113.064 222.629 114.643 220.156 116.971C215.181 121.716 212.942 129.553 214.52 136.66Z" fill="#2F2E41"/>
<path d="M225.138 108.95C224.975 109.511 224.653 110.012 224.21 110.394C223.768 110.775 223.224 111.02 222.644 111.099C220.453 113.806 217.943 116.671 214.51 117.213C213.528 117.421 212.504 117.244 211.649 116.719C211.545 116.654 211.449 116.576 211.362 116.488C210.55 115.716 210.486 114.164 211.45 113.583C207.132 115.294 204.606 119.951 203.969 124.545C203.331 129.138 204.216 133.779 204.797 138.38C205.379 142.981 205.634 147.814 203.825 152.088C201.69 157.128 196.782 160.75 191.428 161.904C190.95 162.007 190.472 162.095 189.986 162.151C189.663 159.966 188.851 157.882 187.611 156.053C187.939 158.169 187.745 160.333 187.046 162.358C183.02 162.302 179.066 161.281 175.517 159.381C170.665 156.825 166.625 152.924 163.319 148.554C169.015 152.59 176.887 154.103 183.086 150.91C188.631 148.044 191.906 142.026 193.34 135.96C194.774 129.886 188.746 122.444 189.4 116.243C190.061 110.042 197.547 104.778 201.642 100.073C204.255 97.0723 208.112 94.8512 212.087 95.2254C213.43 95.3532 214.729 95.7687 215.897 96.4435C217.064 97.1182 218.073 98.0365 218.853 99.1357C219.633 100.235 220.167 101.489 220.419 102.813C220.67 104.137 220.633 105.5 220.31 106.808C221.441 105.208 224.365 105.558 225.09 107.381C225.285 107.883 225.302 108.437 225.138 108.95Z" fill="#2F2E41"/>
<path d="M214.963 136.582C214.963 136.582 219.791 118.578 240.484 114.423C240.507 114.415 240.585 114.384 240.686 114.338C240.748 114.299 240.826 114.26 240.904 114.221C240.67 114.089 240.445 113.973 240.212 113.856L240.209 113.856L240.206 113.854L240.205 113.851L240.204 113.848C240.002 113.662 239.8 113.476 239.59 113.297L238.999 113.32C238.999 113.32 218.236 110.035 214.963 136.582Z" fill="#FD6584"/>
<path d="M266.897 222.378C266.712 221.909 266.401 221.501 265.999 221.197C265.597 220.892 265.12 220.705 264.618 220.654C263.613 220.566 262.601 220.713 261.662 221.081C257.976 222.308 254.666 224.458 252.049 227.326L252.093 229.148C250.864 230.715 250.208 232.654 250.234 234.645C250.26 236.635 250.967 238.557 252.236 240.091C252.954 240.973 253.932 241.606 255.032 241.899C255.581 242.036 256.158 242.022 256.7 241.858C257.242 241.695 257.73 241.388 258.113 240.971C259.214 239.63 258.682 237.611 257.872 236.077C256.459 233.408 254.39 231.142 251.86 229.491C256.084 229.383 260.234 228.353 264.016 226.472C264.855 226.106 265.611 225.575 266.241 224.912C266.552 224.578 266.775 224.171 266.889 223.728C267.004 223.286 267.006 222.822 266.897 222.378Z" fill="#2F2E41"/>
<path d="M342.639 329.606L334.753 329.918C332.781 333.56 331.729 337.629 331.688 341.77C336.38 336.093 345.366 336.85 351.657 333.016C353.61 331.806 355.265 330.171 356.5 328.235C357.734 326.298 358.517 324.109 358.79 321.829L361.736 317.073C358.087 316.401 354.337 316.527 350.742 317.443C347.147 318.358 343.793 320.042 340.912 322.377C339.308 323.703 337.879 325.225 336.656 326.908C339.665 328.065 342.639 329.606 342.639 329.606Z" fill="#F2F2F2"/>
<path d="M303.296 415.245L295.41 415.557C293.438 419.2 292.386 423.268 292.345 427.409C297.037 421.733 306.023 422.489 312.314 418.655C314.267 417.445 315.922 415.811 317.156 413.874C318.391 411.937 319.174 409.748 319.447 407.468L322.393 402.713C318.744 402.04 314.993 402.166 311.398 403.082C307.803 403.997 304.45 405.681 301.569 408.016C299.965 409.342 298.536 410.865 297.313 412.548C300.322 413.705 303.296 415.245 303.296 415.245Z" fill="#F2F2F2"/>
<path d="M117.442 293.991L110.758 289.799C107.072 291.692 103.904 294.456 101.53 297.85C108.61 295.813 115.599 301.508 122.957 301.894C125.253 301.997 127.542 301.582 129.656 300.681C131.77 299.779 133.653 298.414 135.167 296.687L140.286 294.425C137.655 291.811 134.489 289.799 131.004 288.525C127.52 287.252 123.801 286.749 120.103 287.051C118.031 287.24 115.99 287.69 114.03 288.389C115.859 291.042 117.442 293.991 117.442 293.991Z" fill="#F2F2F2"/>
<path d="M314.394 111.127C314.237 110.072 315.382 109.32 315.811 108.343C316.086 107.471 316.086 106.535 315.81 105.663C315.563 104.479 315.278 103.223 314.42 102.369C313.543 101.633 312.462 101.18 311.322 101.071C308.549 100.588 305.719 100.538 302.931 100.923L305.046 101.052C303.714 100.967 302.378 101.122 301.101 101.509C300.465 101.71 299.889 102.067 299.426 102.548C298.964 103.029 298.63 103.619 298.455 104.263C298.193 105.567 299.086 107.094 300.412 107.206C299.75 107.071 299.061 107.204 298.496 107.575C297.931 107.946 297.536 108.525 297.398 109.186C297.259 109.848 297.388 110.537 297.756 111.103C298.125 111.669 298.702 112.067 299.363 112.209C299.058 113.034 298.15 113.428 297.373 113.839C296.595 114.251 295.777 114.956 295.909 115.825C296.082 116.973 297.619 117.21 298.781 117.159L311.429 116.607C312.518 116.646 313.6 116.422 314.584 115.953C315.521 115.406 316.175 114.209 315.742 113.215C315.407 112.447 314.517 111.956 314.394 111.127Z" fill="#3F3D56"/>
<path d="M167.706 223.68C165.968 231.31 165.142 239.96 169.778 246.788C171.748 249.718 174.64 251.907 177.996 253.009C181.393 254.015 184.974 254.235 188.469 253.652C196.376 252.557 203.404 248.442 211.181 246.844C214.613 246.139 218.255 245.906 221.559 247.263C224.035 248.28 226.642 250.324 226.654 253.24C226.666 256.234 224.063 258.222 221.474 259.142C218.02 260.371 214.43 259.895 210.848 259.74C206.989 259.574 203.054 259.922 199.848 262.284C197.091 264.434 194.977 267.298 193.735 270.565C192.124 274.472 191.47 278.673 190.44 282.749C189.519 286.414 188.216 289.973 186.553 293.367C183.289 300.019 178.715 305.944 173.103 310.786C170.336 313.166 166.973 315.59 163.193 315.808C160.278 315.976 156.734 314.752 155.61 311.802C155.193 310.528 155.234 309.149 155.726 307.902C156.218 306.655 157.131 305.619 158.306 304.972C160.804 303.713 163.525 305.51 164.332 307.976C164.544 308.545 164.618 309.155 164.548 309.758C164.478 310.36 164.267 310.938 163.931 311.443C163.174 312.572 164.999 313.627 165.751 312.506C167.498 309.903 166.585 306.402 164.445 304.317C163.401 303.254 162.006 302.606 160.519 302.496C159.033 302.385 157.557 302.819 156.366 303.715C155.13 304.656 154.195 305.937 153.677 307.401C153.159 308.865 153.079 310.448 153.449 311.956C154.347 315.197 157.535 317.258 160.717 317.769C164.647 318.399 168.43 316.856 171.602 314.627C174.785 312.331 177.679 309.66 180.222 306.671C185.391 300.732 189.277 293.79 191.636 286.28C193.956 278.852 194.125 269.04 201.018 264.024C204.565 261.443 208.911 261.729 213.07 261.966C216.741 262.175 220.323 262.137 223.691 260.477C226.472 259.105 228.716 256.574 228.762 253.35C228.809 250.095 226.496 247.477 223.77 245.994C216.571 242.077 207.925 245.236 200.852 247.854C193.739 250.486 185.617 253.575 178.058 250.805C174.569 249.451 171.76 246.769 170.247 243.348C168.417 239.47 168.157 235.069 168.579 230.86C168.829 228.631 169.216 226.42 169.738 224.24C170.039 222.92 168.007 222.357 167.706 223.68Z" fill="#3F3D56"/>
<path d="M202.613 266.14C201.965 265.326 201.505 264.38 201.263 263.369C201.021 262.357 201.004 261.305 201.213 260.287C201.423 259.268 201.853 258.308 202.474 257.473C203.094 256.639 203.891 255.95 204.807 255.457L194.094 223.767L202.842 190.184L216.948 196.556L208.243 221.887L214.756 258.757C215.484 260.35 215.602 262.153 215.088 263.827C214.574 265.501 213.463 266.928 211.966 267.838C210.47 268.748 208.691 269.078 206.967 268.765C205.243 268.452 203.694 267.518 202.613 266.14Z" fill="#FFB6B6"/>
<path d="M215.525 162.514C215.525 162.514 212.212 160.736 209.908 168.357C208.063 174.458 195.509 207.583 195.283 216.429C194.067 216.68 192.97 217.329 192.165 218.273C191.359 219.216 190.89 220.4 190.832 221.639L209.065 224.16C212.265 221.488 210.661 219.213 209.432 218.131L215.642 207.621L228.622 179.247L217.943 163.756L215.525 162.514Z" fill="#E6E6E6"/>
<path d="M180.625 202.276C178.541 209.228 175.399 215.82 171.309 221.818C170.297 223.292 169.234 224.729 168.119 226.128C167.253 224.555 166.203 223.089 164.993 221.762C160.742 217.094 155.045 214.04 149.516 210.98C143.986 207.919 138.373 204.634 134.467 199.671C132.714 197.437 131.459 194.855 130.785 192.097C129.9 188.356 130.237 184.453 132.422 181.329C135.598 176.787 141.928 175.187 147.31 176.499C152.698 177.812 157.209 181.554 160.707 185.85C159.562 180.571 165.133 175.475 170.522 175.938C175.911 176.408 180.231 181.111 181.665 186.32C183.105 191.521 182.17 197.095 180.625 202.276Z" fill="#2DB4DE"/>
<path d="M284.79 9.14916C281.935 9.61497 279.204 10.6556 276.764 12.2078C274.323 13.76 272.224 15.7915 270.593 18.179C268.94 20.644 267.838 23.4364 267.364 26.3654C266.889 29.2945 267.053 32.2914 267.843 35.1516C268.731 38.4682 270.418 41.5173 272.756 44.033C273.682 45.0272 275.17 43.5355 274.246 42.5439C272.405 40.5254 271.013 38.1395 270.163 35.5438C269.312 32.9482 269.023 30.2018 269.314 27.4861C269.626 24.8762 270.492 22.3627 271.852 20.1126C273.212 17.8626 275.036 15.9276 277.202 14.4363C279.63 12.7361 282.419 11.6214 285.35 11.1798C286.687 10.9787 286.119 8.94924 284.79 9.14916Z" fill="#3F3D56"/>
<g opacity="0.2">
<path d="M357.086 42.3687C356.125 43.5298 355.07 44.6098 353.932 45.5977C336.248 60.9145 321.881 77.7054 311.223 95.5001L307.38 101.916L307.12 102.358C306.215 101.677 305.425 100.855 304.781 99.9225C302.322 96.3495 302.308 91.6534 302.912 87.3574C304.739 74.4763 311.298 62.7354 321.312 54.4196C331.325 46.1038 344.077 41.8082 357.086 42.3687Z" fill="black"/>
</g>
<g opacity="0.2">
<path d="M171.309 221.818C170.297 223.292 169.234 224.729 168.119 226.128C167.253 224.555 166.203 223.089 164.993 221.762C160.742 217.094 155.045 214.04 149.516 210.98C143.986 207.919 138.373 204.634 134.467 199.671C132.714 197.437 131.459 194.855 130.785 192.097C143.215 193.819 154.636 199.873 163.033 209.19C166.395 212.972 169.183 217.227 171.309 221.818Z" fill="black"/>
</g>
<path d="M306.024 102.204C307.576 102.204 308.835 100.947 308.835 99.396C308.835 97.8453 307.576 96.5882 306.024 96.5882C304.472 96.5882 303.214 97.8453 303.214 99.396C303.214 100.947 304.472 102.204 306.024 102.204Z" fill="#3F3D56"/>
</g>
<defs>
<clipPath id="clip0_6_11">
<rect width="448" height="458" fill="white"/>
</clipPath>
</defs>
</svg>
