<svg width="232" height="36" viewBox="0 0 232 36" fill="none" xmlns="http://www.w3.org/2000/svg">
<path d="M58.552 9.248V26H55.192V18.872H48.016V26H44.656V9.248H48.016V16.136H55.192V9.248H58.552ZM74.2191 19.064C74.2191 19.544 74.1871 19.976 74.1231 20.36H64.4031C64.4831 21.32 64.8191 22.072 65.4111 22.616C66.0031 23.16 66.7311 23.432 67.5951 23.432C68.8431 23.432 69.7311 22.896 70.2591 21.824H73.8831C73.4991 23.104 72.7631 24.16 71.6751 24.992C70.5871 25.808 69.2511 26.216 67.6671 26.216C66.3871 26.216 65.2351 25.936 64.2111 25.376C63.2031 24.8 62.4111 23.992 61.8351 22.952C61.2751 21.912 60.9951 20.712 60.9951 19.352C60.9951 17.976 61.2751 16.768 61.8351 15.728C62.3951 14.688 63.1791 13.888 64.1871 13.328C65.1951 12.768 66.3551 12.488 67.6671 12.488C68.9311 12.488 70.0591 12.76 71.0511 13.304C72.0591 13.848 72.8351 14.624 73.3791 15.632C73.9391 16.624 74.2191 17.768 74.2191 19.064ZM70.7391 18.104C70.7231 17.24 70.4111 16.552 69.8031 16.04C69.1951 15.512 68.4511 15.248 67.5711 15.248C66.7391 15.248 66.0351 15.504 65.4591 16.016C64.8991 16.512 64.5551 17.208 64.4271 18.104H70.7391ZM75.8076 19.304C75.8076 17.96 76.0716 16.768 76.5996 15.728C77.1436 14.688 77.8716 13.888 78.7836 13.328C79.7116 12.768 80.7436 12.488 81.8796 12.488C82.8716 12.488 83.7356 12.688 84.4716 13.088C85.2236 13.488 85.8236 13.992 86.2716 14.6V12.704H89.6556V26H86.2716V24.056C85.8396 24.68 85.2396 25.2 84.4716 25.616C83.7196 26.016 82.8476 26.216 81.8556 26.216C80.7356 26.216 79.7116 25.928 78.7836 25.352C77.8716 24.776 77.1436 23.968 76.5996 22.928C76.0716 21.872 75.8076 20.664 75.8076 19.304ZM86.2716 19.352C86.2716 18.536 86.1116 17.84 85.7916 17.264C85.4716 16.672 85.0396 16.224 84.4956 15.92C83.9516 15.6 83.3676 15.44 82.7436 15.44C82.1196 15.44 81.5436 15.592 81.0156 15.896C80.4876 16.2 80.0556 16.648 79.7196 17.24C79.3996 17.816 79.2396 18.504 79.2396 19.304C79.2396 20.104 79.3996 20.808 79.7196 21.416C80.0556 22.008 80.4876 22.464 81.0156 22.784C81.5596 23.104 82.1356 23.264 82.7436 23.264C83.3676 23.264 83.9516 23.112 84.4956 22.808C85.0396 22.488 85.4716 22.04 85.7916 21.464C86.1116 20.872 86.2716 20.168 86.2716 19.352ZM96.2973 14.768C96.7293 14.064 97.2893 13.512 97.9773 13.112C98.6813 12.712 99.4813 12.512 100.377 12.512V16.04H99.4893C98.4333 16.04 97.6333 16.288 97.0893 16.784C96.5613 17.28 96.2973 18.144 96.2973 19.376V26H92.9373V12.704H96.2973V14.768ZM106.552 15.464V21.896C106.552 22.344 106.656 22.672 106.864 22.88C107.088 23.072 107.456 23.168 107.968 23.168H109.528V26H107.416C104.584 26 103.168 24.624 103.168 21.872V15.464H101.584V12.704H103.168V9.416H106.552V12.704H109.528V15.464H106.552ZM123.52 9.248C125.28 9.248 126.824 9.592 128.152 10.28C129.496 10.968 130.528 11.952 131.248 13.232C131.984 14.496 132.352 15.968 132.352 17.648C132.352 19.328 131.984 20.8 131.248 22.064C130.528 23.312 129.496 24.28 128.152 24.968C126.824 25.656 125.28 26 123.52 26H117.664V9.248H123.52ZM123.4 23.144C125.16 23.144 126.52 22.664 127.48 21.704C128.44 20.744 128.92 19.392 128.92 17.648C128.92 15.904 128.44 14.544 127.48 13.568C126.52 12.576 125.16 12.08 123.4 12.08H121.024V23.144H123.4ZM147.227 19.064C147.227 19.544 147.195 19.976 147.131 20.36H137.411C137.491 21.32 137.827 22.072 138.419 22.616C139.011 23.16 139.739 23.432 140.603 23.432C141.851 23.432 142.739 22.896 143.267 21.824H146.891C146.507 23.104 145.771 24.16 144.683 24.992C143.595 25.808 142.259 26.216 140.675 26.216C139.395 26.216 138.243 25.936 137.219 25.376C136.211 24.8 135.419 23.992 134.843 22.952C134.283 21.912 134.003 20.712 134.003 19.352C134.003 17.976 134.283 16.768 134.843 15.728C135.403 14.688 136.187 13.888 137.195 13.328C138.203 12.768 139.363 12.488 140.675 12.488C141.939 12.488 143.067 12.76 144.059 13.304C145.067 13.848 145.843 14.624 146.387 15.632C146.947 16.624 147.227 17.768 147.227 19.064ZM143.747 18.104C143.731 17.24 143.419 16.552 142.811 16.04C142.203 15.512 141.459 15.248 140.579 15.248C139.747 15.248 139.043 15.504 138.467 16.016C137.907 16.512 137.563 17.208 137.435 18.104H143.747ZM153.591 15.464V21.896C153.591 22.344 153.695 22.672 153.903 22.88C154.127 23.072 154.495 23.168 155.007 23.168H156.567V26H154.455C151.623 26 150.207 24.624 150.207 21.872V15.464H148.623V12.704H150.207V9.416H153.591V12.704H156.567V15.464H153.591ZM171.344 19.064C171.344 19.544 171.312 19.976 171.248 20.36H161.528C161.608 21.32 161.944 22.072 162.536 22.616C163.128 23.16 163.856 23.432 164.72 23.432C165.968 23.432 166.856 22.896 167.384 21.824H171.008C170.624 23.104 169.888 24.16 168.8 24.992C167.712 25.808 166.376 26.216 164.792 26.216C163.512 26.216 162.36 25.936 161.336 25.376C160.328 24.8 159.536 23.992 158.96 22.952C158.4 21.912 158.12 20.712 158.12 19.352C158.12 17.976 158.4 16.768 158.96 15.728C159.52 14.688 160.304 13.888 161.312 13.328C162.32 12.768 163.48 12.488 164.792 12.488C166.056 12.488 167.184 12.76 168.176 13.304C169.184 13.848 169.96 14.624 170.504 15.632C171.064 16.624 171.344 17.768 171.344 19.064ZM167.864 18.104C167.848 17.24 167.536 16.552 166.928 16.04C166.32 15.512 165.576 15.248 164.696 15.248C163.864 15.248 163.16 15.504 162.584 16.016C162.024 16.512 161.68 17.208 161.552 18.104H167.864ZM172.933 19.352C172.933 17.976 173.213 16.776 173.773 15.752C174.333 14.712 175.109 13.912 176.101 13.352C177.093 12.776 178.229 12.488 179.509 12.488C181.157 12.488 182.517 12.904 183.589 13.736C184.677 14.552 185.405 15.704 185.773 17.192H182.149C181.957 16.616 181.629 16.168 181.165 15.848C180.717 15.512 180.157 15.344 179.485 15.344C178.525 15.344 177.765 15.696 177.205 16.4C176.645 17.088 176.365 18.072 176.365 19.352C176.365 20.616 176.645 21.6 177.205 22.304C177.765 22.992 178.525 23.336 179.485 23.336C180.845 23.336 181.733 22.728 182.149 21.512H185.773C185.405 22.952 184.677 24.096 183.589 24.944C182.501 25.792 181.141 26.216 179.509 26.216C178.229 26.216 177.093 25.936 176.101 25.376C175.109 24.8 174.333 24 173.773 22.976C173.213 21.936 172.933 20.728 172.933 19.352ZM192.146 15.464V21.896C192.146 22.344 192.25 22.672 192.458 22.88C192.682 23.072 193.05 23.168 193.562 23.168H195.122V26H193.01C190.178 26 188.762 24.624 188.762 21.872V15.464H187.178V12.704H188.762V9.416H192.146V12.704H195.122V15.464H192.146ZM199.243 11.12C198.651 11.12 198.155 10.936 197.755 10.568C197.371 10.184 197.179 9.712 197.179 9.152C197.179 8.592 197.371 8.128 197.755 7.76C198.155 7.376 198.651 7.184 199.243 7.184C199.835 7.184 200.323 7.376 200.707 7.76C201.107 8.128 201.307 8.592 201.307 9.152C201.307 9.712 201.107 10.184 200.707 10.568C200.323 10.936 199.835 11.12 199.243 11.12ZM200.899 12.704V26H197.539V12.704H200.899ZM209.763 22.904L213.123 12.704H216.699L211.779 26H207.699L202.803 12.704H206.403L209.763 22.904ZM230.946 19.064C230.946 19.544 230.914 19.976 230.85 20.36H221.13C221.21 21.32 221.546 22.072 222.138 22.616C222.73 23.16 223.458 23.432 224.322 23.432C225.57 23.432 226.458 22.896 226.986 21.824H230.61C230.226 23.104 229.49 24.16 228.402 24.992C227.314 25.808 225.978 26.216 224.394 26.216C223.114 26.216 221.962 25.936 220.938 25.376C219.93 24.8 219.138 23.992 218.562 22.952C218.002 21.912 217.722 20.712 217.722 19.352C217.722 17.976 218.002 16.768 218.562 15.728C219.122 14.688 219.906 13.888 220.914 13.328C221.922 12.768 223.082 12.488 224.394 12.488C225.658 12.488 226.786 12.76 227.778 13.304C228.786 13.848 229.562 14.624 230.106 15.632C230.666 16.624 230.946 17.768 230.946 19.064ZM227.466 18.104C227.45 17.24 227.138 16.552 226.53 16.04C225.922 15.512 225.178 15.248 224.298 15.248C223.466 15.248 222.762 15.504 222.186 16.016C221.626 16.512 221.282 17.208 221.154 18.104H227.466Z" fill="#2DB4DE"/>
<path d="M24.0625 5.375C28.4924 5.375 32.0834 9.02083 32.0834 14.125C32.0834 24.3333 21.1459 30.1667 17.5 32.3542C14.6163 30.6239 7.17065 26.6127 4.18391 19.9598L1.45837 19.9583V17.0417L3.22361 17.043C3.02499 16.1131 2.91671 15.1407 2.91671 14.125C2.91671 9.02083 6.56254 5.375 10.9375 5.375C13.65 5.375 16.0417 6.83333 17.5 8.29167C18.9584 6.83333 21.35 5.375 24.0625 5.375ZM24.0625 8.29167C22.4935 8.29167 20.7949 9.12162 19.5624 10.3541L17.5 12.4165L15.4377 10.3541C14.2052 9.12162 12.5066 8.29167 10.9375 8.29167C8.107 8.29167 5.83337 10.7074 5.83337 14.125C5.83337 15.1246 5.96513 16.0961 6.22214 17.0422L9.38268 17.0417L12.3959 12.0197L16.7709 19.3113L18.1327 17.0417H24.7917V19.9583H19.7841L16.7709 24.9804L12.3959 17.6887L11.0341 19.9583L7.44905 19.9592C8.60023 21.9616 10.3441 23.8493 12.6075 25.6501C13.6938 26.5143 14.8524 27.3207 16.1381 28.1305C16.5734 28.4049 17.0058 28.6688 17.5 28.9638C17.9943 28.6688 18.4267 28.4049 18.862 28.1305C20.1476 27.3207 21.3063 26.5143 22.3926 25.6501C26.7367 22.194 29.1667 18.4176 29.1667 14.125C29.1667 10.6844 26.9252 8.29167 24.0625 8.29167Z" fill="#2DB4DE"/>
</svg>
